<svg xmlns="http://www.w3.org/2000/svg" viewBox="0 0 400 250" width="400" height="250"><rect width="400" height="250" rx="16" fill="#0d1b2a"/>
<rect x="1" y="1" width="398" height="248" rx="15" fill="none" stroke="#1f3b57" stroke-width="2"/><text x="18" y="28" font-family="Consolas,monospace" font-size="13" fill="#00d4ff" letter-spacing="2">ROBOTIC ARM</text>
<line x1="60" y1="212" x2="340" y2="212" stroke="#1f3b57" stroke-width="3"/>
<rect x="165" y="195" width="70" height="17" rx="4" fill="#22314e"/>
<rect x="180" y="182" width="40" height="16" rx="4" fill="#2c5364"/>
<g transform="translate(200,185)"><g><animateTransform attributeName="transform" type="rotate" values="-40 0 0;35 0 0;-40 0 0" dur="4s" repeatCount="indefinite" calcMode="spline" keySplines="0.45 0 0.55 1;0.45 0 0.55 1"/>
  <rect x="-9" y="-80" width="18" height="80" rx="9" fill="#00d4ff"/>
  <circle r="12" fill="#0d1b2a" stroke="#00d4ff" stroke-width="4"/>
  <g transform="translate(0,-80)"><g><animateTransform attributeName="transform" type="rotate" values="70 0 0;-30 0 0;70 0 0" dur="4s" repeatCount="indefinite" calcMode="spline" keySplines="0.45 0 0.55 1;0.45 0 0.55 1"/>
    <rect x="-7" y="-62" width="14" height="62" rx="7" fill="#7b2ff7"/>
    <circle r="10" fill="#0d1b2a" stroke="#7b2ff7" stroke-width="4"/>
    <g transform="translate(0,-62)"><g><animateTransform attributeName="transform" type="rotate" values="-20 0 0;20 0 0;-20 0 0" dur="4s" repeatCount="indefinite" calcMode="spline" keySplines="0.45 0 0.55 1;0.45 0 0.55 1"/>
      <rect x="-12" y="-8" width="24" height="8" rx="3" fill="#f77f00"/>
      <g><animateTransform attributeName="transform" type="translate" values="0 0;4 0;0 0" dur="2s" repeatCount="indefinite"/>
        <rect x="-12" y="-22" width="5" height="16" rx="2" fill="#f77f00"/></g>
      <g><animateTransform attributeName="transform" type="translate" values="0 0;-4 0;0 0" dur="2s" repeatCount="indefinite"/>
        <rect x="7" y="-22" width="5" height="16" rx="2" fill="#f77f00"/></g>
      <circle r="6" fill="#0d1b2a" stroke="#f77f00" stroke-width="3"/>
    </g></g>
  </g></g>
</g></g>
<circle cx="200" cy="185" r="3" fill="#00d4ff"/></svg>